<svg width="16" height="16" viewBox="0 0 16 16" fill="none" xmlns="http://www.w3.org/2000/svg">
<path d="M7.41333 12.5133L6.13333 11.2333L6.77333 10.54L8.90667 12.6733V13.3667L6.77333 15.5L6.08 14.7533L7.36 13.4733H5.49333C4.81778 13.5089 4.23111 13.2778 3.73333 12.78C3.23556 12.2822 2.98667 11.6956 2.98667 11.02V5.47333C2.48889 5.36667 2.06222 5.13556 1.70667 4.78C1.35111 4.42444 1.12 3.99778 1.01333 3.5C0.942222 3.00222 0.995556 2.52222 1.17333 2.06C1.38667 1.59778 1.68889 1.22444 2.08 0.94C2.50667 0.655555 2.98667 0.513333 3.52 0.513333C3.84 0.513333 4.16 0.566667 4.48 0.673333C5.12 0.957777 5.58222 1.42 5.86667 2.06C5.97333 2.38 6.02667 2.7 6.02667 3.02C6.02667 3.62444 5.83111 4.15778 5.44 4.62C5.08444 5.08222 4.62222 5.36667 4.05333 5.47333V10.9667C4.05333 11.3933 4.19556 11.7667 4.48 12.0867C4.76444 12.3711 5.12 12.5133 5.54667 12.5133H7.41333ZM2.72 4.24667C3.00444 4.42444 3.32444 4.49556 3.68 4.46C4.03556 4.42444 4.33778 4.28222 4.58667 4.03333C4.83556 3.78444 4.97778 3.48222 5.01333 3.12667C5.04889 2.77111 4.97778 2.46889 4.8 2.22C4.62222 1.93556 4.39111 1.74 4.10667 1.63333C3.82222 1.49111 3.53778 1.45556 3.25333 1.52667C2.96889 1.56222 2.70222 1.70444 2.45333 1.95333C2.24 2.16667 2.09778 2.41556 2.02667 2.7C1.99111 2.98444 2.02667 3.26889 2.13333 3.55333C2.27556 3.83778 2.47111 4.06889 2.72 4.24667ZM13.0133 10.54C13.5111 10.6467 13.9378 10.8778 14.2933 11.2333C14.72 11.66 14.9511 12.1756 14.9867 12.78C15.0578 13.3489 14.9333 13.8822 14.6133 14.38C14.3289 14.8067 13.9556 15.1267 13.4933 15.34C13.0311 15.5178 12.5511 15.5533 12.0533 15.4467C11.5556 15.34 11.1289 15.1089 10.7733 14.7533C10.4178 14.3978 10.1867 13.9711 10.08 13.4733C9.97333 12.9756 10.0089 12.4956 10.1867 12.0333C10.4 11.5711 10.72 11.1978 11.1467 10.9133C11.4311 10.7356 11.7333 10.6111 12.0533 10.54V4.99333C12.0533 4.56667 11.8933 4.21111 11.5733 3.92667C11.2889 3.64222 10.9511 3.5 10.56 3.5H8.69333L9.97333 4.78L9.22667 5.47333L7.09333 3.34V2.64667L9.22667 0.513333L9.97333 1.20667L8.69333 2.48667H10.56C11.2356 2.48667 11.8222 2.73556 12.32 3.23333C12.8178 3.69556 13.0489 4.28222 13.0133 4.99333V10.54ZM12.6933 14.4867C12.9422 14.4511 13.1733 14.3622 13.3867 14.22C13.6 14.0778 13.76 13.8822 13.8667 13.6333C14.0089 13.3844 14.0622 13.1356 14.0267 12.8867C14.0267 12.6378 13.9378 12.3889 13.76 12.14C13.6178 11.8911 13.4044 11.7133 13.12 11.6067C12.8356 11.5 12.5333 11.4822 12.2133 11.5533C11.9289 11.5889 11.68 11.7133 11.4667 11.9267C11.2533 12.14 11.1111 12.4067 11.04 12.7267C11.0044 13.0111 11.04 13.2956 11.1467 13.58C11.2889 13.8644 11.5022 14.0956 11.7867 14.2733C12.0711 14.4511 12.3733 14.5222 12.6933 14.4867Z" fill="#CCCCCC"/>
</svg>
