<svg width="12" height="12" viewBox="0 0 12 12" fill="none" xmlns="http://www.w3.org/2000/svg">
<path d="M11.32 6.82C11.2133 6.79333 11.06 6.74 10.86 6.66L10.62 6.56C10.62 6.41333 10.6067 6.20667 10.58 5.94C10.5667 5.67333 10.56 5.46667 10.56 5.32C10.56 5.29333 10.5667 5.27333 10.58 5.26C10.6067 5.23333 10.62 5.20667 10.62 5.18L11.32 4.88C11.44 4.81333 11.52 4.72667 11.56 4.62C11.6 4.5 11.6 4.38 11.56 4.26L11 3C10.9333 2.86667 10.84 2.78 10.72 2.74C10.6133 2.68667 10.5 2.69333 10.38 2.76L9.68 3.06C9.6 3.06 9.56 3.04 9.56 3C9.50667 2.92 9.40667 2.81333 9.26 2.68L9.12 2.56C9.08 2.52 9.00667 2.46 8.9 2.38C8.80667 2.28667 8.73333 2.22 8.68 2.18C8.73333 2.1 8.78667 1.98 8.84 1.82C8.90667 1.64667 8.96 1.52 9 1.44C9.06667 1.28 9.06667 1.14 9 1.02C8.94667 0.9 8.84 0.813333 8.68 0.76C8.50667 0.719999 8.22 0.633332 7.82 0.499999L7.5 0.38C7.34 0.313333 7.2 0.313333 7.08 0.38C6.96 0.433333 6.87333 0.533333 6.82 0.679999C6.79333 0.786666 6.74 0.94 6.66 1.14L6.56 1.38C6.41333 1.38 6.20667 1.39333 5.94 1.42C5.67333 1.43333 5.46667 1.44 5.32 1.44C5.29333 1.44 5.26667 1.43333 5.24 1.42C5.22667 1.39333 5.20667 1.38 5.18 1.38L4.88 0.679999C4.81333 0.559999 4.72 0.479999 4.6 0.439999C4.49333 0.399999 4.38 0.399999 4.26 0.439999L3 0.999999C2.86667 1.06667 2.77333 1.16 2.72 1.28C2.68 1.38667 2.69333 1.5 2.76 1.62L3.06 2.32C3.06 2.4 3.04 2.44 3 2.44L2.86 2.56C2.76667 2.62667 2.70667 2.68667 2.68 2.74C2.62667 2.80667 2.54667 2.90667 2.44 3.04C2.33333 3.16 2.24667 3.25333 2.18 3.32C2.08667 3.29333 1.94 3.24 1.74 3.16L1.5 3.06C1.34 2.99333 1.2 2.99333 1.08 3.06C0.96 3.11333 0.873333 3.22 0.82 3.38L0.72 3.62C0.56 4.02 0.446667 4.31333 0.38 4.5C0.313334 4.68667 0.3 4.83333 0.34 4.94C0.393334 5.04667 0.506667 5.12667 0.68 5.18C0.786667 5.20667 0.94 5.26 1.14 5.34L1.38 5.44C1.38 5.58667 1.38667 5.79333 1.4 6.06C1.42667 6.32667 1.44 6.53333 1.44 6.68C1.44 6.70667 1.42667 6.73333 1.4 6.76C1.38667 6.77333 1.38 6.79333 1.38 6.82L0.68 7.12C0.56 7.18667 0.48 7.28 0.44 7.4C0.4 7.50667 0.4 7.62 0.44 7.74L1 9C1.06667 9.13333 1.15333 9.22667 1.26 9.28C1.38 9.32 1.5 9.30667 1.62 9.24L2.32 8.94C2.4 8.94 2.44 8.96 2.44 9C2.49333 9.08 2.59333 9.18667 2.74 9.32L2.88 9.44C2.92 9.48 2.98667 9.54 3.08 9.62C3.18667 9.7 3.26667 9.76667 3.32 9.82C3.28 9.9 3.22667 10.0267 3.16 10.2C3.09333 10.36 3.04 10.48 3 10.56C2.93333 10.72 2.92667 10.86 2.98 10.98C3.04667 11.1 3.16 11.1933 3.32 11.26C3.41333 11.2867 3.56667 11.34 3.78 11.42C4.08667 11.5533 4.32667 11.6467 4.5 11.7C4.68667 11.7533 4.83333 11.76 4.94 11.72C5.04667 11.68 5.12667 11.5667 5.18 11.38C5.20667 11.2733 5.26 11.12 5.34 10.92L5.44 10.68C5.58667 10.68 5.79333 10.6733 6.06 10.66C6.32667 10.6333 6.53333 10.62 6.68 10.62C6.70667 10.62 6.72667 10.6333 6.74 10.66C6.76667 10.6733 6.79333 10.68 6.82 10.68L7.12 11.38C7.18667 11.5 7.27333 11.58 7.38 11.62C7.5 11.66 7.62 11.66 7.74 11.62L9 11.06C9.13333 10.9933 9.22 10.9067 9.26 10.8C9.31333 10.68 9.30667 10.56 9.24 10.44L8.94 9.76C8.94 9.66667 8.96 9.62 9 9.62C9.08 9.56667 9.18667 9.46667 9.32 9.32L9.44 9.18C9.48 9.14 9.54 9.07333 9.62 8.98C9.7 8.87333 9.76667 8.8 9.82 8.76C9.91333 8.77333 10.06 8.82667 10.26 8.92L10.5 9C10.66 9.06667 10.8 9.07333 10.92 9.02C11.04 8.95333 11.1267 8.84 11.18 8.68C11.22 8.58667 11.28 8.43333 11.36 8.22C11.4933 7.91333 11.58 7.67333 11.62 7.5C11.7667 7.15333 11.6667 6.92667 11.32 6.82ZM6.94 8.12C6.34 8.37333 5.74667 8.38667 5.16 8.16C4.58667 7.93333 4.16 7.52667 3.88 6.94C3.62667 6.34 3.61333 5.75333 3.84 5.18C4.06667 4.59333 4.47333 4.16 5.06 3.88C5.66 3.62667 6.24667 3.61333 6.82 3.84C7.40667 4.06667 7.84 4.47333 8.12 5.06C8.37333 5.66 8.38667 6.25333 8.16 6.84C7.93333 7.41333 7.52667 7.84 6.94 8.12Z" fill="#6D8086"/>
</svg>
