<svg width="16" height="16" viewBox="0 0 16 16" fill="none" xmlns="http://www.w3.org/2000/svg">
<path d="M3.18 7.68C3.18 6.89333 3.30667 6.18667 3.56 5.56C3.81333 4.93333 4.14 4.42 4.54 4.02C4.95333 3.60667 5.46 3.26667 6.06 3C6.52667 2.78667 7.13333 2.68 7.88 2.68C8.50667 2.68 9.06667 2.80667 9.56 3.06C10.0667 3.31333 10.4867 3.60667 10.82 3.94L9.44 5.5L9.28 5.38C9.05333 5.20667 8.88 5.1 8.76 5.06L8.54 5C8.27333 4.92 8.05333 4.88 7.88 4.88C7.58667 4.88 7.31333 4.94 7.06 5.06C6.78 5.20667 6.55333 5.4 6.38 5.64C6.20667 5.86667 6.06 6.16 5.94 6.52C5.82 6.88 5.76 7.26667 5.76 7.68C5.76 8.64 5.96667 9.32667 6.38 9.74C6.59333 10.0067 6.83333 10.2 7.1 10.32C7.36667 10.44 7.66667 10.5 8 10.5C8.33333 10.5 8.62667 10.44 8.88 10.32C9.16 10.1733 9.38667 9.98 9.56 9.74L10.94 11.32C10.5533 11.76 10.0933 12.1133 9.56 12.38C9.06667 12.62 8.50667 12.74 7.88 12.74C7.29333 12.74 6.68667 12.64 6.06 12.44C5.5 12.2533 5 11.94 4.56 11.5C4.37333 11.3 4.19333 11.04 4.02 10.72C3.92667 10.5333 3.79333 10.2333 3.62 9.82C3.32667 9.23333 3.18 8.52 3.18 7.68ZM9.38 6.06H8.5V7.12H7.5V8H8.5V9.12H9.38V8H10.38V7.12H9.38V6.06ZM13.12 7.06V5.82H12.06V7.06H10.88V8.12H12.06V9.44H13.12V8.12H14.32V7.06H13.12Z" fill="#519ABA"/>
</svg>
