<svg width="16" height="16" viewBox="0 0 16 16" fill="none" xmlns="http://www.w3.org/2000/svg">
<path d="M9.12 10.88C9.21333 10.8533 9.34 10.8333 9.5 10.82C9.66 10.7933 9.78667 10.7733 9.88 10.76C10.72 10.5467 11.28 10.1267 11.56 9.5C11.92 8.78 12.0067 8.00667 11.82 7.18C11.78 7.02 11.72 6.86 11.64 6.7C11.5733 6.59333 11.4667 6.44667 11.32 6.26C11.2667 6.20667 11.24 6.14 11.24 6.06C11.3733 5.55333 11.3533 5.07333 11.18 4.62C11.18 4.59333 11.16 4.56667 11.12 4.54C11.0933 4.51333 11.0533 4.5 11 4.5C10.8667 4.5 10.7267 4.52667 10.58 4.58C10.4867 4.60667 10.3533 4.66667 10.18 4.76C10.02 4.84 9.81333 4.96 9.56 5.12C9.52 5.16 9.46 5.18 9.38 5.18C8.39333 4.94 7.41333 4.94 6.44 5.18C6.36 5.18 6.29333 5.16 6.24 5.12L6.1 5.04C5.84667 4.89333 5.66 4.79333 5.54 4.74C5.34 4.64667 5.14 4.58667 4.94 4.56C4.78 4.53333 4.68 4.53333 4.64 4.56C4.61333 4.57333 4.58667 4.66 4.56 4.82C4.44 5.24667 4.44 5.68 4.56 6.12V6.24C4.29333 6.54667 4.11333 6.9 4.02 7.3C3.94 7.66 3.93333 8.04 4 8.44C4.02667 8.52 4.04667 8.63333 4.06 8.78C4.08667 8.92667 4.10667 9.04 4.12 9.12C4.28 9.56 4.51333 9.91333 4.82 10.18C5.12667 10.4333 5.52 10.6267 6 10.76C6.33333 10.84 6.60667 10.9 6.82 10.94C6.64667 11.1 6.52 11.3467 6.44 11.68C6.44 11.72 6.42 11.7467 6.38 11.76C6.03333 11.8933 5.71333 11.9267 5.42 11.86C5.1 11.78 4.83333 11.58 4.62 11.26C4.40667 10.8867 4.11333 10.6733 3.74 10.62H3.44C3.37333 10.62 3.33333 10.6467 3.32 10.7C3.32 10.74 3.34 10.78 3.38 10.82L3.5 10.94C3.83333 11.14 4.06 11.4333 4.18 11.82C4.31333 12.0867 4.48667 12.2933 4.7 12.44C4.91333 12.5733 5.18 12.6533 5.5 12.68C5.87333 12.68 6.16667 12.66 6.38 12.62V13.82C6.38 13.9133 6.33333 13.9867 6.24 14.04C6.16 14.08 6.06 14.0867 5.94 14.06C5.43333 13.8733 4.93333 13.6267 4.44 13.32C3.48 12.6533 2.77333 11.8667 2.32 10.96C1.84 10.04 1.62667 9.01333 1.68 7.88C1.72 6.93333 1.96667 6.06 2.42 5.26C2.87333 4.44667 3.47333 3.76667 4.22 3.22C4.98 2.67333 5.82 2.30667 6.74 2.12C7.80667 1.92 8.85333 1.98667 9.88 2.32C10.8667 2.65333 11.7267 3.20667 12.46 3.98C13.1933 4.74 13.7067 5.64 14 6.68C14.2667 7.70667 14.2667 8.73333 14 9.76C13.7333 10.76 13.2467 11.6467 12.54 12.42C11.8333 13.18 10.9867 13.7267 10 14.06C9.84 14.1267 9.71333 14.1267 9.62 14.06C9.54 13.9933 9.5 13.8667 9.5 13.68V12.18C9.54 11.9133 9.53333 11.68 9.48 11.48C9.42667 11.2533 9.30667 11.0533 9.12 10.88Z" fill="#D4D7D6"/>
</svg>
