<svg width="16" height="16" viewBox="0 0 16 16" fill="none" xmlns="http://www.w3.org/2000/svg">
<path d="M10.56 12.24C10.48 12.3733 10.3933 12.5267 10.3 12.7C10.22 12.86 10.18 13 10.18 13.12L10 15.06C10 15.2867 9.89333 15.4333 9.68 15.5C9.53333 15.54 9.30667 15.6133 9 15.72C8.69333 15.8267 8.46667 15.9 8.32 15.94H7.62C7.60667 15.94 7.56667 15.9333 7.5 15.92C7.43333 15.8933 7.39333 15.88 7.38 15.88C6.87333 15.7067 6.52 15.56 6.32 15.44C6.18667 15.3067 6.12 15.2 6.12 15.12C6.08 14.7867 6.06 14.3067 6.06 13.68C6.06 13.3467 6.04667 13.1067 6.02 12.96C5.96667 12.6933 5.85333 12.48 5.68 12.32V12.24C7.25333 12.68 8.88 12.68 10.56 12.24ZM11.5 4.32C11.4733 4.6 11.4267 5.03333 11.36 5.62C11.3067 6.20667 11.2733 6.64667 11.26 6.94L10.82 11.5C10.82 11.8867 10.6067 12.1133 10.18 12.18C9.72667 12.2733 9.12667 12.36 8.38 12.44C7.44667 12.5067 6.57333 12.42 5.76 12.18C5.61333 12.1533 5.50667 12.0867 5.44 11.98C5.4 11.9133 5.36 11.7933 5.32 11.62C5.32 11.3667 5.27333 11.08 5.18 10.76L4.94 8.44C4.94 8.41333 4.92667 8.38 4.9 8.34C4.88667 8.3 4.88 8.27333 4.88 8.26C4.85333 7.82 4.77333 7.18 4.64 6.34L4.5 5.32C4.46 5.10667 4.44 4.79333 4.44 4.38C6.86667 4.88667 9.22 4.86667 11.5 4.32ZM4.44 3.94C4.6 3.86 4.72667 3.82 4.82 3.82L6.56 3.62C6.58667 3.62 6.64 3.6 6.72 3.56L6.82 3.5C6.78 3.39333 6.73333 3.23333 6.68 3.02C6.62667 2.76667 6.57333 2.57333 6.52 2.44C6.44 2.24 6.32667 2.07333 6.18 1.94C6.02 1.76667 5.78 1.50667 5.46 1.16C5.15333 0.799999 4.92 0.539999 4.76 0.379999C4.89333 0.233333 4.98667 0.146666 5.04 0.119999C5.09333 0.0799994 5.14 0.0733329 5.18 0.0999992C5.23333 0.126666 5.32 0.199999 5.44 0.319999L5.68 0.559999C5.86667 0.773332 6.01333 0.919999 6.12 1C6.82667 1.57333 7.24667 2.3 7.38 3.18C7.43333 3.36667 7.50667 3.48667 7.6 3.54C7.69333 3.59333 7.82667 3.62 8 3.62L11.12 3.82C11.1867 3.82 11.2867 3.84 11.42 3.88L11.56 3.94C11.2267 4.19333 10.5 4.36667 9.38 4.46C8.35333 4.55333 7.33333 4.55333 6.32 4.46C5.26667 4.35333 4.64 4.18 4.44 3.94Z" fill="#CC3E44"/>
</svg>
