<svg width="16" height="16" viewBox="0 0 16 16" fill="none" xmlns="http://www.w3.org/2000/svg">
<path d="M5.12 4.24H6.82V9C6.82 10.0267 6.58 10.7733 6.1 11.24C5.66 11.6667 5 11.88 4.12 11.88C3.92 11.88 3.7 11.8667 3.46 11.84C3.22 11.8 3.02667 11.7467 2.88 11.68L3.06 10.32C3.31333 10.44 3.60667 10.5 3.94 10.5C4.31333 10.5 4.59333 10.4 4.78 10.2C5.00667 9.96 5.12 9.56 5.12 9V4.24ZM8.32 10C8.56 10.1333 8.84 10.2467 9.16 10.34C9.52 10.4467 9.86 10.5 10.18 10.5C10.58 10.5 10.88 10.4333 11.08 10.3C11.28 10.1533 11.38 9.95333 11.38 9.7C11.38 9.44667 11.2867 9.24667 11.1 9.1C10.9133 8.94 10.5867 8.78 10.12 8.62C8.74667 8.14 8.06 7.39333 8.06 6.38C8.06 5.71333 8.31333 5.17333 8.82 4.76C9.34 4.33333 10.0467 4.12 10.94 4.12C11.6467 4.12 12.2933 4.24667 12.88 4.5L12.5 5.88L12.38 5.82C12.14 5.72667 11.9467 5.66 11.8 5.62C11.52 5.54 11.2333 5.5 10.94 5.5C10.58 5.5 10.3 5.57333 10.1 5.72C9.91333 5.85333 9.82 6.03333 9.82 6.26C9.82 6.48667 9.92667 6.67333 10.14 6.82C10.3 6.94 10.6467 7.10667 11.18 7.32C11.8467 7.57333 12.3333 7.88 12.64 8.24C12.96 8.6 13.12 9.04 13.12 9.56C13.12 10.2267 12.8667 10.7667 12.36 11.18C11.8133 11.6467 11.0467 11.88 10.06 11.88C9.67333 11.88 9.26667 11.8267 8.84 11.72C8.50667 11.6533 8.20667 11.56 7.94 11.44L8.32 10Z" fill="#CBCB41"/>
</svg>
