<svg width="16" height="16" viewBox="0 0 16 16" fill="none" xmlns="http://www.w3.org/2000/svg">
<path d="M11.76 10.12C11.76 10.16 11.76 10.2133 11.76 10.28C11.84 11.0933 11.88 11.7067 11.88 12.12C11.88 12.52 11.78 12.8533 11.58 13.12C11.38 13.3867 11.1267 13.5333 10.82 13.56C10.5133 13.6267 10.18 13.5867 9.82 13.44C9.55333 13.3067 9.18 13.08 8.7 12.76C8.39333 12.56 8.16 12.4133 8 12.32C7.58667 12.6533 7.25333 12.9 7 13.06C6.78667 13.2067 6.58 13.3133 6.38 13.38C6.00667 13.54 5.66 13.5933 5.34 13.54C5.02 13.4733 4.76 13.3133 4.56 13.06C4.37333 12.8067 4.27333 12.4733 4.26 12.06C4.26 11.6467 4.3 10.98 4.38 10.06C3.87333 9.9 3.49333 9.73333 3.24 9.56C2.90667 9.4 2.57333 9.15333 2.24 8.82C1.97333 8.54 1.84667 8.24 1.86 7.92C1.87333 7.58667 2.02667 7.28 2.32 7C2.53333 6.74667 2.82 6.53333 3.18 6.36C3.39333 6.24 3.72667 6.1 4.18 5.94C4.20667 5.94 4.24667 5.93333 4.3 5.92C4.36667 5.89333 4.41333 5.88 4.44 5.88L4.26 4.5C4.24667 4.20667 4.28667 3.81333 4.38 3.32C4.47333 2.97333 4.66 2.72667 4.94 2.58C5.23333 2.43333 5.56667 2.40667 5.94 2.5C6.27333 2.58 6.60667 2.72667 6.94 2.94C7.18 3.08667 7.45333 3.29333 7.76 3.56C7.81333 3.58667 7.87333 3.64667 7.94 3.74L8 3.82C8.66667 3.31333 9.18667 2.95333 9.56 2.74C9.98667 2.46 10.4067 2.38 10.82 2.5C11.1267 2.56667 11.3667 2.73333 11.54 3C11.7267 3.25333 11.84 3.58667 11.88 4V5C11.88 5.13333 11.8467 5.33333 11.78 5.6C11.74 5.77333 11.7067 5.90667 11.68 6C12.0533 6.12 12.4067 6.26667 12.74 6.44C13.0867 6.6 13.3333 6.73333 13.48 6.84C13.7333 7.01333 13.9333 7.21333 14.08 7.44C14.2267 7.65333 14.3 7.88 14.3 8.12C14.3 8.36 14.2267 8.59333 14.08 8.82C13.9333 9.03333 13.7333 9.22667 13.48 9.4C13.32 9.50667 13.0733 9.64667 12.74 9.82C12.5 9.86 12.1667 9.96 11.74 10.12H11.76ZM8.12 10.06C8.18667 10.06 8.29333 10.0533 8.44 10.04C8.64 10.0133 8.78667 10 8.88 10C9.05333 10 9.2 9.91333 9.32 9.74C9.73333 9.07333 10.02 8.55333 10.18 8.18C10.22 8.12667 10.24 8.06 10.24 7.98C10.24 7.9 10.22 7.84667 10.18 7.82C9.98 7.43333 9.66667 6.91333 9.24 6.26C9.18667 6.12667 9.08667 6.06 8.94 6.06C8.23333 6.06 7.69333 6.04 7.32 6C6.98667 6 6.73333 6.14667 6.56 6.44C6.4 6.69333 6.27333 6.9 6.18 7.06L5.9 7.58C5.78 7.75333 5.70667 7.88 5.68 7.96C5.66667 8.02667 5.66667 8.1 5.68 8.18C5.70667 8.24667 5.78 8.37333 5.9 8.56L6.18 9.06L6.42 9.46C6.55333 9.67333 6.64667 9.80667 6.7 9.86C6.78 9.95333 6.87333 10.0067 6.98 10.02C7.06 10.0333 7.22667 10.04 7.48 10.04L8.12 10.06ZM4.5 9.56C4.75333 8.89333 4.94 8.41333 5.06 8.12V7.88L4.5 6.44C3.75333 6.66667 3.17333 6.93333 2.76 7.24C2.46667 7.46667 2.32 7.71333 2.32 7.98C2.32 8.23333 2.46667 8.46667 2.76 8.68C2.97333 8.90667 3.24667 9.09333 3.58 9.24C3.78 9.33333 4.08667 9.44 4.5 9.56ZM11.56 6.38C11.4 6.75333 11.1933 7.27333 10.94 7.94L10.92 8C10.9067 8.04 10.9133 8.06 10.94 8.06C11.1933 8.72667 11.4 9.26667 11.56 9.68C11.72 9.6 11.9667 9.47333 12.3 9.3C12.74 9.1 13.0533 8.94 13.24 8.82C13.5867 8.59333 13.76 8.34 13.76 8.06C13.76 7.78 13.5933 7.53333 13.26 7.32C13.0333 7.12 12.6667 6.9 12.16 6.66C11.88 6.54 11.68 6.44667 11.56 6.38ZM4.88 5.74C5.54667 5.67333 6.06667 5.59333 6.44 5.5C6.46667 5.5 6.49333 5.48667 6.52 5.46L6.56 5.44C6.8 5.10667 7.13333 4.68667 7.56 4.18C7.22667 3.9 6.97333 3.69333 6.8 3.56C6.50667 3.33333 6.22 3.16667 5.94 3.06C5.59333 2.94 5.31333 2.94667 5.1 3.08C4.88667 3.2 4.74667 3.44667 4.68 3.82C4.65333 4.07333 4.66 4.36667 4.7 4.7C4.72667 4.9 4.78 5.21333 4.86 5.64L4.88 5.74ZM11.12 5.74C11.12 5.72667 11.1267 5.69333 11.14 5.64C11.1667 5.57333 11.18 5.52667 11.18 5.5C11.2733 5.08667 11.32 4.76667 11.32 4.54C11.3467 4.16667 11.3 3.84 11.18 3.56C11.1267 3.34667 11.0267 3.19333 10.88 3.1C10.7333 3.00667 10.5667 2.97333 10.38 3C10.0467 3.05333 9.72 3.18667 9.4 3.4C9.2 3.52 8.92667 3.74 8.58 4.06L8.44 4.18C8.65333 4.47333 8.96667 4.87333 9.38 5.38L9.56 5.56L11.12 5.76V5.74ZM4.88 10.24C4.86667 10.32 4.84667 10.4333 4.82 10.58C4.74 10.9533 4.69333 11.2267 4.68 11.4C4.65333 11.7067 4.68 11.9933 4.76 12.26C4.81333 12.5667 4.94 12.78 5.14 12.9C5.35333 13.02 5.62 13.0333 5.94 12.94C6.20667 12.86 6.48 12.7267 6.76 12.54C6.92 12.42 7.15333 12.2267 7.46 11.96L7.62 11.82C7.38 11.4867 7.04667 11.0667 6.62 10.56C6.54 10.48 6.48 10.44 6.44 10.44C5.96 10.44 5.44 10.3733 4.88 10.24ZM8.38 11.82C8.55333 12.0467 8.80667 12.28 9.14 12.52C9.44667 12.7467 9.73333 12.9067 10 13C10.6667 13.2 11.06 12.9733 11.18 12.32C11.2333 12.0267 11.2467 11.7067 11.22 11.36C11.2067 11.1467 11.16 10.8267 11.08 10.4L11.06 10.32L10.66 10.36C10.1 10.4 9.69333 10.4667 9.44 10.56C9.32 10.6267 9.20667 10.72 9.1 10.84C9.03333 10.92 8.94667 11.04 8.84 11.2C8.74667 11.3333 8.67333 11.44 8.62 11.52C8.58 11.5867 8.5 11.6867 8.38 11.82ZM8.76 5.44C8.66667 5.33333 8.53333 5.18667 8.36 5C8.2 4.81333 8.08 4.66667 8 4.56L7.9 4.7C7.64667 5.02 7.43333 5.26667 7.26 5.44H8.76ZM8.76 10.56H7.32C7.4 10.6667 7.52 10.8133 7.68 11C7.85333 11.1867 7.98 11.3333 8.06 11.44C8.15333 11.2933 8.30667 11.0933 8.52 10.84L8.76 10.56ZM6.18 9.94C6.12667 9.84667 6.04667 9.70667 5.94 9.52C5.71333 9.14667 5.54667 8.84667 5.44 8.62L5.06 9.68C5.28667 9.77333 5.66 9.86 6.18 9.94ZM10.56 8.62L9.82 9.94L10.94 9.74C10.8867 9.47333 10.76 9.1 10.56 8.62ZM5.44 7.38L6.18 6.06L5.06 6.24L5.14 6.5C5.23333 6.88667 5.33333 7.18 5.44 7.38ZM9.82 6.06C9.9 6.23333 10.02 6.44667 10.18 6.7C10.3533 6.94 10.48 7.14667 10.56 7.32C10.7333 6.81333 10.86 6.46 10.94 6.26C10.62 6.24667 10.2467 6.18 9.82 6.06Z" fill="#519ABA"/>
</svg>
