<svg width="16" height="16" viewBox="0 0 16 16" fill="none" xmlns="http://www.w3.org/2000/svg">
<path d="M7.06 3.38H8.32V4.62H7.06V3.38ZM7.06 4.82H8.32V6.06H7.06V4.82ZM7.06 6.32H8.32V7.56H7.06V6.32ZM5.62 4.82H6.88V6.06H5.62V4.82ZM5.62 6.32H6.88V7.56H5.62V6.32ZM4.12 4.82H5.38V6.06H4.12V4.82ZM4.12 6.32H5.38V7.56H4.12V6.32ZM2.68 6.32H3.94V7.56H2.68V6.32ZM8.56 6.32H9.82V7.56H8.56V6.32ZM14.94 6.5C14.6067 6.42 14.3333 6.38 14.12 6.38C13.8267 6.43333 13.62 6.30667 13.5 6C13.38 5.69333 13.1933 5.44 12.94 5.24C12.7533 5.02667 12.5733 4.94667 12.4 5C12.2267 5.04 12.0933 5.18667 12 5.44C11.88 5.84 11.86 6.3 11.94 6.82C12.0067 7.1 12.0067 7.29333 11.94 7.4C11.8867 7.49333 11.7133 7.57333 11.42 7.64C11.14 7.70667 9.36 7.74667 6.08 7.76C4.44 7.76 2.83333 7.75333 1.26 7.74C1.19333 7.74 1.14 7.80667 1.1 7.94C1.07333 8.06 1.06 8.20667 1.06 8.38C1.06 8.60667 1.08 8.87333 1.12 9.18C1.16 9.58 1.22667 9.87333 1.32 10.06C1.64 10.78 2.06 11.3533 2.58 11.78C3.15333 12.2467 3.81333 12.5067 4.56 12.56H7.38C8.24667 12.5333 9.06667 12.3133 9.84 11.9C10.5333 11.54 11.2133 11.0133 11.88 10.32C12.4133 9.70667 12.8267 9.08 13.12 8.44C13.24 8.21333 13.4333 8.07333 13.7 8.02C13.9667 7.96667 14.1667 7.92 14.3 7.88C14.5 7.82667 14.6733 7.74 14.82 7.62C14.86 7.54 14.94 7.44 15.06 7.32C15.2733 7.16 15.3667 7 15.34 6.84C15.3267 6.68 15.1933 6.56667 14.94 6.5ZM5.62 9.68C5.75333 9.68 5.86667 9.72667 5.96 9.82C6.06667 9.91333 6.12 10.04 6.12 10.2C6.12 10.3467 6.07333 10.4667 5.98 10.56C5.9 10.64 5.78667 10.68 5.64 10.68C5.49333 10.68 5.36667 10.64 5.26 10.56C5.16667 10.4667 5.12 10.3467 5.12 10.2C5.12 10.04 5.16667 9.91333 5.26 9.82C5.36667 9.72667 5.48667 9.68 5.62 9.68ZM2.56 11.06C2.70667 11.0467 2.92 11.0467 3.2 11.06C3.57333 11.0733 3.84 11.0533 4 11C4.30667 10.8933 4.56 10.88 4.76 10.96C4.97333 11.0267 5.16 11.2067 5.32 11.5C5.38667 11.6467 5.5 11.78 5.66 11.9C5.75333 11.9667 5.92 12.0667 6.16 12.2L6.38 12.32C5.68667 12.4133 4.99333 12.3467 4.3 12.12C3.60667 11.88 3.02667 11.5267 2.56 11.06Z" fill="#519ABA"/>
</svg>
