<svg width="16" height="16" viewBox="0 0 16 16" fill="none" xmlns="http://www.w3.org/2000/svg">
<path d="M8.26 6.74C7.40667 6.74 6.66667 6.72 6.04 6.68C5.26667 6.62667 4.54667 6.52667 3.88 6.38C3.72 6.35333 3.49333 6.28 3.2 6.16C3.04 6.08 2.91333 6.02667 2.82 6C2.64667 5.94667 2.56 5.82 2.56 5.62V3.44C2.56 3.37333 2.57333 3.31333 2.6 3.26C2.64 3.20667 2.68667 3.18 2.74 3.18L2.94 3.1C3.39333 2.9 3.74667 2.78 4 2.74C4.69333 2.58 5.46667 2.47333 6.32 2.42C6.82667 2.39333 7.59333 2.38 8.62 2.38C10.02 2.38 11.2733 2.52667 12.38 2.82C12.6333 2.87333 12.9 2.97333 13.18 3.12C13.3533 3.17333 13.44 3.3 13.44 3.5V5.68C13.44 5.77333 13.38 5.88 13.26 6C12.9267 6.16 12.6733 6.26667 12.5 6.32L11.62 6.46C10.8467 6.58 10.2667 6.65333 9.88 6.68C9.69333 6.70667 9.41333 6.72 9.04 6.72C8.68 6.72 8.42 6.72667 8.26 6.74ZM13.44 6.88V9.12C13.44 9.18667 13.4 9.26 13.32 9.34C13.2533 9.40667 13.1867 9.44 13.12 9.44L12.8 9.56C12.4 9.69333 12.1133 9.78 11.94 9.82C10.38 10.0867 8.58667 10.1867 6.56 10.12H6.52C5.85333 10.08 5.34667 10.04 5 10C4.44 9.93333 3.94 9.82667 3.5 9.68C3.32667 9.64 3.08 9.54 2.76 9.38C2.62667 9.31333 2.56 9.20667 2.56 9.06V6.88C3.38667 7.16 4.29333 7.35333 5.28 7.46C5.98667 7.52667 6.89333 7.56 8 7.56C9 7.6 9.90667 7.57333 10.72 7.48C11.68 7.37333 12.5867 7.17333 13.44 6.88ZM13.44 10.38V12.56C13.44 12.6267 13.4 12.7 13.32 12.78C13.2533 12.8467 13.1867 12.9 13.12 12.94C12.7867 13.06 12.54 13.1467 12.38 13.2C12.1 13.2933 11.8467 13.3533 11.62 13.38C9.07333 13.7533 6.55333 13.7333 4.06 13.32C3.84667 13.28 3.52667 13.1867 3.1 13.04L2.82 12.94C2.72667 12.9133 2.66 12.8667 2.62 12.8C2.58 12.7333 2.56 12.6333 2.56 12.5V10.38C3.36 10.66 4.25333 10.8533 5.24 10.96C5.94667 11.0267 6.86667 11.06 8 11.06C9.10667 11.06 10.0133 11.0267 10.72 10.96C11.7067 10.8533 12.6133 10.66 13.44 10.38Z" fill="#F55385"/>
</svg>
