<svg width="16" height="16" viewBox="0 0 16 16" fill="none" xmlns="http://www.w3.org/2000/svg">
<path d="M7.76 7.68H6.5C6.06 7.68 5.70667 7.81333 5.44 8.08C5.18667 8.33333 5.06 8.68 5.06 9.12V10.24C5.06 10.3733 5 10.44 4.88 10.44H4.32C3.73333 10.44 3.31333 10.1867 3.06 9.68C2.86 9.26667 2.76 8.89333 2.76 8.56C2.68 7.73333 2.74 7.04667 2.94 6.5C3.15333 5.86 3.54667 5.48667 4.12 5.38H7.74C7.87333 5.38 7.94 5.36 7.94 5.32V5L7.86 4.96C7.80667 4.94667 7.77333 4.94 7.76 4.94H5.62C5.52667 4.94 5.46 4.92 5.42 4.88C5.39333 4.84 5.38 4.77333 5.38 4.68V3.88C5.38 3.41333 5.56667 3.12 5.94 3C6.35333 2.82667 6.66667 2.72 6.88 2.68C7.68 2.54667 8.42667 2.56667 9.12 2.74C9.46667 2.82 9.76 2.94667 10 3.12C10.1467 3.26667 10.2467 3.4 10.3 3.52C10.38 3.66667 10.4067 3.82667 10.38 4V6.24C10.38 6.68 10.26 7.02 10.02 7.26C9.78 7.5 9.44 7.62 9 7.62C8.70667 7.66 8.29333 7.68 7.76 7.68ZM6 3.94C6 4.07333 6.04667 4.19333 6.14 4.3C6.23333 4.39333 6.34667 4.44 6.48 4.44C6.61333 4.44 6.73333 4.38667 6.84 4.28C6.94667 4.17333 7 4.06 7 3.94C7 3.82 6.94667 3.71333 6.84 3.62C6.74667 3.52667 6.63333 3.46667 6.5 3.44C6.35333 3.44 6.23333 3.49333 6.14 3.6C6.04667 3.69333 6 3.80667 6 3.94ZM8.26 8.32H9.5C9.94 8.32 10.2867 8.19333 10.54 7.94C10.8067 7.67333 10.94 7.32 10.94 6.88V5.74C10.94 5.62 11 5.56 11.12 5.56H11.68C12.2667 5.56 12.6867 5.81333 12.94 6.32C13.1533 6.73333 13.26 7.10667 13.26 7.44C13.3267 8.26667 13.26 8.95333 13.06 9.5C12.8467 10.14 12.4533 10.5133 11.88 10.62H8.26C8.12667 10.62 8.06 10.64 8.06 10.68V11L8.14 11.04C8.19333 11.0533 8.23333 11.06 8.26 11.06H10.38C10.4733 11.06 10.5333 11.08 10.56 11.12C10.6 11.16 10.62 11.2267 10.62 11.32V12.12C10.62 12.5867 10.4333 12.88 10.06 13C9.64667 13.16 9.33333 13.2667 9.12 13.32C8.32 13.4533 7.57333 13.4267 6.88 13.24C6.53333 13.1733 6.24 13.0533 6 12.88C5.85333 12.7333 5.75333 12.6 5.7 12.48C5.62 12.3333 5.59333 12.1733 5.62 12V9.74C5.62 9.31333 5.74 8.98 5.98 8.74C6.22 8.5 6.56 8.38 7 8.38C7.29333 8.34 7.71333 8.32 8.26 8.32ZM10 12.06C10 11.9267 9.95333 11.8133 9.86 11.72C9.76667 11.6133 9.65333 11.56 9.52 11.56C9.38667 11.56 9.26667 11.6133 9.16 11.72C9.05333 11.8267 9 11.94 9 12.06C9 12.18 9.04667 12.2867 9.14 12.38C9.24667 12.4733 9.36667 12.5333 9.5 12.56C9.64667 12.56 9.76667 12.5133 9.86 12.42C9.95333 12.3133 10 12.1933 10 12.06Z" fill="#519ABA"/>
</svg>
