<svg width="16" height="16" viewBox="0 0 16 16" fill="none" xmlns="http://www.w3.org/2000/svg">
<path d="M9.26 8.82C9.02 8.96667 8.65333 9.19333 8.16 9.5L7.06 10.18C7.3 10.7267 7.32 11.2933 7.12 11.88C6.97333 12.36 6.72 12.7467 6.36 13.04C6.01333 13.32 5.6 13.4933 5.12 13.56C4.93333 13.6133 4.70667 13.5933 4.44 13.5C4.22667 13.4467 4.08 13.3 4 13.06C3.74667 12.5 3.80667 12 4.18 11.56L4.38 11.36C4.63333 11.0933 4.84 10.9133 5 10.82C5.12 10.7133 5.32667 10.58 5.62 10.42C5.84667 10.3 6.01333 10.2 6.12 10.12C6.14667 10.0933 6.19333 10.0733 6.26 10.06L6.38 10C6.32667 9.97333 6.26 9.92667 6.18 9.86C6.11333 9.79333 6.05333 9.76 6 9.76C5.44 9.4 4.96 9.02 4.56 8.62C4.22667 8.28667 4 8.02 3.88 7.82C3.6 7.60667 3.43333 7.35333 3.38 7.06C3.34 6.76667 3.4 6.47333 3.56 6.18C3.76 5.7 4.13333 5.18 4.68 4.62C5.64 3.78 6.76667 3.13333 8.06 2.68C8.98 2.36 9.85333 2.26 10.68 2.38C10.7733 2.42 10.92 2.47333 11.12 2.54C11.3333 2.59333 11.48 2.64 11.56 2.68C12.04 2.88 12.3667 3.16 12.54 3.52C12.7133 3.88 12.72 4.31333 12.56 4.82C12.2933 5.67333 11.7933 6.31333 11.06 6.74C10.5533 7.06 10.04 7.28 9.52 7.4C9 7.52 8.45333 7.53333 7.88 7.44C7.53333 7.38667 7.2 7.2 6.88 6.88C6.8 6.70667 6.73333 6.6 6.68 6.56L6.7 6.52C6.71333 6.49333 6.73333 6.46667 6.76 6.44H6.78C6.82 6.45333 6.85333 6.47333 6.88 6.5C7.30667 6.94 7.84667 7.08667 8.5 6.94C9.07333 6.83333 9.56667 6.68 9.98 6.48C10.46 6.25333 10.86 5.94667 11.18 5.56C11.5 5.17333 11.7133 4.8 11.82 4.44C11.9267 3.97333 11.74 3.6 11.26 3.32C10.86 3.12 10.36 3.05333 9.76 3.12C8.64 3.29333 7.51333 3.73333 6.38 4.44C5.75333 4.78667 5.27333 5.18 4.94 5.62C4.82 5.79333 4.67333 6.04667 4.5 6.38C4.40667 6.63333 4.38 6.88 4.42 7.12C4.46 7.36 4.57333 7.56667 4.76 7.74C5.09333 8.07333 5.34 8.30667 5.5 8.44L6.68 9.44L6.76 9.46C6.81333 9.47333 6.85333 9.46667 6.88 9.44C7.04 9.33333 7.20667 9.24667 7.38 9.18C8.00667 8.83333 8.58667 8.60667 9.12 8.5C9.12 8.59333 9.12667 8.66 9.14 8.7C9.15333 8.72667 9.18 8.75333 9.22 8.78L9.26 8.82V8.76V8.82ZM6.56 10.38C6 10.6867 5.52 11.04 5.12 11.44C4.89333 11.6667 4.74667 11.9333 4.68 12.24C4.65333 12.4267 4.69333 12.5667 4.8 12.66C4.90667 12.7533 5.06 12.78 5.26 12.74C5.72667 12.6333 6.1 12.3667 6.38 11.94C6.52667 11.7 6.61333 11.4533 6.64 11.2C6.65333 10.9867 6.62667 10.7133 6.56 10.38Z" fill="#F55385"/>
</svg>
